<svg width="84" height="84" viewBox="0 0 84 84" fill="none" xmlns="http://www.w3.org/2000/svg">
<path d="M42 79.3753C63.9073 79.3753 81.6667 61.616 81.6667 39.7087C81.6667 17.8014 63.9073 0.0419922 42 0.0419922C20.0927 0.0419922 2.33337 17.8014 2.33337 39.7087C2.33337 61.616 20.0927 79.3753 42 79.3753Z" fill="#FFCB4C"/>
<path d="M33.8893 49.084C33.5395 48.808 33.2849 48.4294 33.1613 48.0013C33.0833 47.7545 33.0576 47.4942 33.0858 47.2369C33.1139 46.9796 33.1953 46.731 33.3248 46.5069C33.4543 46.2828 33.6291 46.0881 33.8379 45.9352C34.0468 45.7824 34.2852 45.6747 34.538 45.619C45.1033 43.2367 52.2177 48.7993 52.5187 49.0373C53.4147 49.7513 53.5897 51.009 52.9223 51.849C52.255 52.6843 50.9903 52.7847 50.0967 52.0753C49.84 51.8793 44.2097 47.5883 35.672 49.5133C35.3616 49.5795 35.0404 49.5753 34.7319 49.501C34.4234 49.4267 34.1355 49.2842 33.8893 49.084V49.084Z" fill="#65471B"/>
<path d="M30.611 32.27C33.3495 32.27 35.5694 29.4954 35.5694 26.0727C35.5694 22.65 33.3495 19.8754 30.611 19.8754C27.8726 19.8754 25.6527 22.65 25.6527 26.0727C25.6527 29.4954 27.8726 32.27 30.611 32.27Z" fill="#65471B"/>
<path d="M56.875 34.7479C59.6134 34.7479 61.8333 31.9733 61.8333 28.5506C61.8333 25.1279 59.6134 22.3533 56.875 22.3533C54.1365 22.3533 51.9166 25.1279 51.9166 28.5506C51.9166 31.9733 54.1365 34.7479 56.875 34.7479Z" fill="#65471B"/>
<path d="M40.3107 82.0143C40.3107 82.0143 43.2624 81.0553 43.645 78.8597C44.0487 76.5917 42.189 76.1367 42.189 76.1367C42.189 76.1367 44.618 75.6513 44.9237 72.926C45.2107 70.357 42.9147 69.7457 42.9147 69.7457C42.9147 69.7457 45.178 68.8123 45.2854 66.1547C45.374 63.917 42.9637 62.8227 42.9637 62.8227C42.9637 62.8227 54.719 59.9737 55.9277 59.6937C57.1317 59.4137 59.0077 58.2587 58.422 55.741C57.841 53.221 55.6127 53.1323 54.4624 53.4007C53.3097 53.669 38.7264 57.0547 33.6957 58.226L30.338 59.0053C29.078 59.3017 28.5064 58.7487 29.3954 57.8107C30.5807 56.56 31.339 55.1763 31.6027 52.8803C31.8804 50.4653 31.0614 47.4833 30.5924 46.326C29.7197 44.177 28.2474 42.4783 26.5464 41.895C23.8934 40.985 22.008 42.644 22.9484 45.5373C24.3577 49.8633 23.4337 53.4123 21.0047 55.5543C15.2904 60.5873 12.6327 64.176 14.4014 71.8247C16.3334 80.1663 24.6144 85.5353 32.956 83.6033L40.3107 82.0143Z" fill="#F19020"/>
<path d="M21.6906 14.8189C21.2978 14.6101 20.9792 14.2849 20.7783 13.8879C20.6567 13.6595 20.584 13.4083 20.5647 13.1502C20.5453 12.8922 20.5799 12.6329 20.6661 12.3889C20.7524 12.1449 20.8884 11.9215 21.0656 11.7329C21.2427 11.5443 21.4572 11.3946 21.6953 11.2933C31.6493 7.02095 39.6596 11.1929 39.9956 11.3726C41.006 11.9116 41.4143 13.1156 40.908 14.0653C40.404 15.0103 39.1813 15.3393 38.171 14.8073C37.884 14.6603 31.563 11.4659 23.5223 14.9169C23.2289 15.0377 22.9123 15.0916 22.5954 15.0747C22.2786 15.0577 21.9695 14.9704 21.6906 14.8189V14.8189ZM50.0056 23.5689C49.6289 23.334 49.3339 22.9885 49.161 22.5796C49.0547 22.3432 48.9988 22.0873 48.9969 21.8282C48.995 21.569 49.047 21.3123 49.1498 21.0744C49.2525 20.8364 49.4036 20.6225 49.5936 20.4462C49.7835 20.2699 50.0081 20.135 50.253 20.0503C60.4753 16.4663 68.1846 21.1703 68.5066 21.3733C69.475 21.9799 69.8016 23.2096 69.2346 24.1219C68.67 25.0319 67.424 25.2769 66.4556 24.6773C66.1756 24.5093 60.0926 20.8949 51.8326 23.7929C51.5304 23.8928 51.2099 23.9244 50.894 23.8857C50.5781 23.847 50.2748 23.7388 50.0056 23.5689V23.5689Z" fill="#65471B"/>
</svg>
