<svg width="128" height="128" viewBox="0 0 128 128" fill="none" xmlns="http://www.w3.org/2000/svg">
<path d="M79.46 54.2C85.61 52.46 96.51 52.69 99.7 52.92C105.28 53.32 110.86 53.2 111.82 59.97C112.46 64.53 110.93 68.68 104.17 69.42C101.79 69.68 98.88 69.82 96.48 70.2L94.6 72.27C96.82 71.97 101.91 72.07 103.44 71.88C109.9 71.09 115.36 73.68 116.18 79.89C116.9 85.33 112.8 89.53 106.98 89.21C104.99 89.1 99.37 89.87 93.79 90.02L93.36 91.15L93.16 91.49C96.7 91.59 100.09 91.73 102.5 91.85C108.95 92.17 112.47 95.63 112.38 100.23C112.27 105.82 107.04 107.92 103.3 108.23C100.5 108.46 90.48 108.17 83.75 107.62L82.69 109.43C83.17 109.44 96.06 110.06 96.55 110.09C102.46 110.53 104.98 112.67 104.83 116.89C104.62 122.81 98.3 124.38 94.88 124.92C89.33 125.8 81.93 125.54 76.54 125.69C64.88 126.01 41.02 126.53 29.88 116.77C26.08 113.44 22.25 108.91 18.99 107.61C12.16 104.89 11.57 95.99 11.88 84.74C12.03 79.3 10.16 64.03 16.76 60.33C26.02 55.14 41.72 51.22 46.94 47.12C55.5 40.39 60.5 29.44 62.78 23.03C67.12 10.82 68.44 2 76.03 2C89.33 2 88.98 13.88 89.23 19.82C89.72 31.45 75.37 52.97 79.46 54.2V54.2Z" fill="#FAC036"/>
<path d="M68.02 80.94C68.15 86.93 72.77 89.5 72.98 89.61C70.33 89.55 64.59 92.24 64.59 97.95C64.59 102.66 67.15 106.33 69.72 107.58C68.03 107.94 64.84 110.24 64.84 115.26C64.84 122.62 70.3 125.31 74.43 125.82C78.56 126.33 90.04 125.64 93.83 125.06C95.86 124.75 83.77 124.61 74.92 123.45C72.38 123.12 69.35 120.73 68.86 117.51C68.86 117.51 68.14 113.26 72.02 110.81C72.02 110.81 73.66 109.4 81.27 109.46L83.57 109.49C84.29 109.54 93.48 109.86 96.54 110.08C97.89 110.18 99.05 110.37 100.05 110.65C99.89 110.42 99.71 110.04 99.77 109.49C99.9 108.33 100.66 108.28 100.86 108.28L99.04 108.18L92.56 107.81C86.1 107.42 77 106.8 75.95 106.38C75.95 106.38 69.61 104.78 69.61 98.28C69.61 98.28 69.28 92.75 77.74 92.49C77.74 92.49 97.73 91.34 106.19 92.46C106.19 92.46 104.98 90.21 106.98 89.2C106.98 89.2 92.71 89.55 83.77 89.79C74.83 90.03 72.92 85.28 72.69 82.69C72.66 82.3 72.58 81.68 72.58 80.95C72.58 75.8 77.1 75.12 83.57 74.28C97.53 72.45 103.44 71.88 103.44 71.88C104.21 71.79 104.94 71.74 105.65 71.75C105.26 71.53 104.73 71.12 104.66 70.44C104.62 70 104.84 69.33 104.84 69.33C104.84 69.33 98.82 69.82 89.53 71.06C80.25 72.3 72.83 71.73 72.16 66.3C71.67 62.32 72.34 59.79 74.06 57.82C76.18 55.39 79.59 54.18 79.59 54.18C79.59 54.18 79.2 54.1 78.98 53.81C78.76 53.51 78.75 53.04 78.75 53.04C71.18 54 66 58.81 66.43 64.99C66.73 69.22 67.85 72.04 70.66 73.41C70.67 73.4 67.89 74.96 68.02 80.94V80.94Z" fill="#E48C15"/>
<path d="M71.1101 67.52L67.7901 68.48C67.7901 68.48 72.7101 86.59 54.5501 99.07C54.5501 99.07 52.2201 100.63 53.3501 101.8C53.3501 101.8 54.1401 103.16 57.4801 100.61C57.4801 100.6 75.2001 89.04 71.1101 67.52Z" fill="#E48C15"/>
</svg>
