<svg width="104" height="104" viewBox="0 0 104 104" fill="none" xmlns="http://www.w3.org/2000/svg">
<path d="M104 52C104 80.7184 80.7184 104 52 104C23.2844 104 0 80.7184 0 52C0 23.2844 23.2844 0 52 0C80.7184 0 104 23.2844 104 52Z" fill="#FFCC4D"/>
<path d="M33.2222 57.7778C37.2109 57.7778 40.4444 53.2509 40.4444 47.6667C40.4444 42.0824 37.2109 37.5555 33.2222 37.5555C29.2335 37.5555 26 42.0824 26 47.6667C26 53.2509 29.2335 57.7778 33.2222 57.7778Z" fill="#664500"/>
<path d="M70.7778 57.7778C74.7665 57.7778 78 53.2509 78 47.6667C78 42.0824 74.7665 37.5555 70.7778 37.5555C66.789 37.5555 63.5555 42.0824 63.5555 47.6667C63.5555 53.2509 66.789 57.7778 70.7778 57.7778Z" fill="#664500"/>
<path d="M34.6666 80.8889C40.4444 66.4445 72.2222 66.4445 72.2222 72.2222C72.2222 75.1111 49.1111 69.3333 34.6666 80.8889Z" fill="#664500"/>
</svg>
